<?xml version="1.0" encoding="utf-8"?>
<!-- Generator: Adobe Illustrator 24.3.0, SVG Export Plug-In . SVG Version: 6.00 Build 0)  -->
<svg version="1.1" id="Capa_1" xmlns="http://www.w3.org/2000/svg" xmlns:xlink="http://www.w3.org/1999/xlink" x="0px" y="0px"
	 viewBox="0 0 400 300" style="enable-background:new 0 0 400 300;" xml:space="preserve">
<style type="text/css">
	.st0{fill:#805AA2;stroke:#FFFFFF;stroke-miterlimit:10;}
	.st1{fill:#57BDDC;stroke:#FFFFFF;stroke-miterlimit:10;}
	.st2{fill:none;stroke:#060707;stroke-miterlimit:10;}
</style>
<rect x="93.51" y="114.9" class="st0" width="76.1" height="65.37"/>
<circle class="st1" cx="247.17" cy="86.61" r="34.15"/>
<path class="st2" d="M59.72,121.05c31.22-21.79,69.43-33.4,107.5-32.66c0.77-17.6-1.29-35.31-6.08-52.26
	c-1.99-7.05-5.05-14.67-11.68-17.78c-7.06-3.32-15.41-0.24-22.24,3.54c-15.62,8.64-29.14,21.03-39.11,35.84
	c-5.65,8.38-10.28,18.02-9.94,28.12c0.34,10.1,6.94,20.52,16.86,22.47c3.57,0.7,7.26,0.29,10.86-0.21
	c8.91-1.26,18.86-3.91,23.13-11.84c-19.05,4.4-36.64,14.94-49.5,29.68c-3.52,4.04-6.48,10.8-2.26,14.1
	c1.84,1.44,4.38,1.49,6.71,1.41c21.85-0.77,43.43-7.85,61.49-20.18c7.25-4.95,14.09-10.91,18.19-18.66s5.06-17.59,0.73-25.22
	c-31.86,5.79-56.59,32.2-70.49,61.45c-2.09,4.39-4.03,9.1-3.68,13.95c0.78,10.98,12.55,17.76,23.35,19.87
	c8.49,1.66,17.2,1.71,25.84,1.62c36.5-0.38,72.97-3.03,109.14-7.94c-13.5,17.51-27.45,35.42-46.35,46.88
	c-18.91,11.46-44.16,15.2-62.87,3.42c-11.16-7.03-18.94-19.19-20.63-32.27c-2.53-19.53,8.55-39.24,24.82-50.34
	s36.84-14.47,56.47-13.01c9.53,0.71,18.96,2.48,28.29,4.53c6.48,1.42,13.05,3.03,18.7,6.51s10.32,9.15,10.96,15.75
	c-9.01,5.7-19.95,7.29-30.55,8.37c-15.93,1.62-31.94,2.36-47.94,3.1c-54.87,2.55-109.74,5.1-164.6,7.64
	c23.31-24.32,53.61-42.12,86.52-49.32s68.3-3.56,98.48,11.41c3.66,1.82,7.3,3.83,10.21,6.7c7.66,7.56,8.85,19.95,5.37,30.14
	c-3.48,10.18-10.85,18.54-18.61,26c-6.65,6.4-14.35,12.66-23.54,13.55c-13.21,1.29-24.87-8.93-32.01-20.12
	c-10.19-15.98-14.86-35.71-11.4-54.34c1.83-9.82,5.8-19.11,10.5-27.92c3.38-6.34,7.15-12.47,11.28-18.36
	c5.99-8.54,13.91-17.19,24.31-17.97c7.55-0.57,14.75,3.23,20.79,7.79c6.77,5.12,12.69,11.37,17.44,18.4
	c4.08,6.03,7.31,13.98,3.82,20.37c-2.85,5.2-9.1,7.35-14.87,8.71c-12.65,2.98-25.98,4.24-38.59,1.11
	c-5.36-1.33-10.73-3.58-14.33-7.77c-6.36-7.42-5.4-18.72-1.81-27.81c5.15-13.03,15.06-24.11,27.42-30.7
	c13.6-7.24,31.96-8.3,43.23,2.2c11.96,11.14,11.5,29.91,9.93,46.18c-1.19,12.31-2.99,25.65-11.78,34.33
	c-0.78-27.23,8.4-54.64,25.42-75.91c9.35,4.56,12.38,16.32,13.19,26.69c1.19,15.31-1.54,33.19-14.66,41.17
	c-1.47-1.14-2.94-2.27-4.41-3.41c0.65-9.13,8.38-17.43,17.51-18.11c9.13-0.67,18.24,6.95,18.6,16.1c0.13,3.22-0.72,6.41-1.83,9.44
	c-3.19,8.67-9.29,16.89-18.06,19.8s-20.11-1.44-22.45-10.38c-0.99-3.79-0.34-7.79,0.32-11.66c0.5-2.93,1-5.88,2.03-8.66
	c3.86-10.49,14.99-17.24,26.15-17.84s22.1,4.15,30.85,11.1c6.29,5,11.86,11.55,13.31,19.45c1.77,9.63-2.86,19.28-8.45,27.31
	c-6.25,8.98-13.88,17-22.54,23.68c-6.19,4.78-13.61,9.05-21.38,8.1c-9.08-1.11-15.88-9.12-19.37-17.57
	c-3.11-7.54-4.3-16.25-1.3-23.84c13.43-8.6,33.88-2.51,40.41,12.04c-4.46,12.93-15.73,22.86-28.59,27.49
	c-12.87,4.62-27.13,4.34-40.42,1.12c-21.2-5.13-39.99-17.28-57.52-30.28c-10.86-8.05-21.42-16.5-31.65-25.34
	c2.28,19.99,10.04,39.34,22.21,55.37"/>
</svg>
